<svg width="250" height="250" viewBox="0 0 250 250" fill="none" xmlns="http://www.w3.org/2000/svg">
<path fill-rule="evenodd" clip-rule="evenodd" d="M177.396 103.657H47.8839C45.5281 103.657 43.6235 105.566 43.6235 107.918C43.6235 110.269 45.5321 112.178 47.8839 112.178H50.0161V188.917H47.8839V188.921C43.1723 188.921 39.3552 192.738 39.3552 197.45C39.3552 202.161 43.1723 205.983 47.8839 205.983H197.098C201.809 205.983 205.626 202.161 205.626 197.45C205.626 192.738 201.809 188.921 197.098 188.921H194.969V135.405L177.912 152.238V188.917H152.333V112.178H174.323L177.396 103.657ZM135.276 112.178V188.917H109.698V112.178H135.276ZM67.0657 112.178H92.644V188.917H67.0657V112.178Z" fill="black"/>
<path d="M158.131 55.8084L137.86 75.8118C136.522 77.1235 136.019 79.039 136.515 80.8605C137.007 82.6922 138.439 84.2106 140.313 84.8864L171.165 96.0134H37.2146C33.1937 96.0134 29.7199 93.2065 28.8774 89.2775C28.0309 85.3485 30.0473 81.3636 33.7168 79.7105L118.989 41.343C121.217 40.3448 123.76 40.3448 125.984 41.343L158.131 55.8084Z" fill="black"/>
<path d="M207.741 211.094H37.2099C32.4983 211.094 28.6812 214.912 28.6812 219.627C28.6812 224.335 32.4983 228.152 37.2099 228.152H207.738C212.449 228.152 216.266 224.335 216.266 219.627C216.262 214.912 212.445 211.094 207.741 211.094Z" fill="black"/>
<path d="M242.692 77.7367C242.114 76.3828 240.762 75.2814 239.111 74.7962L204.933 64.7472L217.257 22.8339C217.785 21.0354 216.631 19.0071 214.485 17.9705C212.303 16.9147 209.785 17.1764 208.366 18.5392L149.14 75.6402C148.121 76.6156 147.865 78.0304 148.447 79.3691C149.027 80.7153 150.378 81.8243 152.028 82.3096L186.206 92.3585L173.882 134.272C173.354 136.07 174.508 138.099 176.654 139.135C176.98 139.289 177.313 139.42 177.645 139.518C179.539 140.075 181.56 139.733 182.773 138.567L241.999 81.4656C243.01 80.4796 243.282 79.0858 242.692 77.7367Z" fill="black"/>
</svg>
